<svg width="40" height="40" viewBox="0 0 40 40" fill="none" xmlns="http://www.w3.org/2000/svg">
<rect x="0.5" y="0.5" width="39" height="39" rx="19.5" stroke="white" stroke-opacity="0.7"/>
<path fill-rule="evenodd" clip-rule="evenodd" d="M19.707 14.2928C19.8945 14.4803 19.9998 14.7346 19.9998 14.9998C19.9998 15.265 19.8945 15.5193 19.707 15.7068L16.414 18.9998H26C26.2652 18.9998 26.5196 19.1051 26.7071 19.2927C26.8947 19.4802 27 19.7346 27 19.9998C27 20.265 26.8947 20.5194 26.7071 20.7069C26.5196 20.8944 26.2652 20.9998 26 20.9998H16.414L19.707 24.2928C19.8892 24.4814 19.99 24.734 19.9877 24.9962C19.9854 25.2584 19.8803 25.5092 19.6948 25.6946C19.5094 25.88 19.2586 25.9852 18.9964 25.9875C18.7342 25.9897 18.4816 25.8889 18.293 25.7068L13.293 20.7068C13.1056 20.5193 13.0002 20.265 13.0002 19.9998C13.0002 19.7346 13.1056 19.4803 13.293 19.2928L18.293 14.2928C18.4806 14.1053 18.7349 14 19 14C19.2652 14 19.5195 14.1053 19.707 14.2928Z" fill="#F2F2F2"/>
</svg>
