<svg width="24" height="24" viewBox="0 0 24 24" fill="none" xmlns="http://www.w3.org/2000/svg">
<g clip-path="url(#clip0_691_4084)">
<path d="M21.8909 20.5074C21.8469 20.5124 17.6819 20.9624 13.5099 20.9984C14.6549 20.0324 16.0479 18.7954 17.4439 17.3994C19.3589 15.4844 20.9799 13.5704 22.0029 12.3024C23.3759 10.6014 23.3989 8.19036 22.0619 6.43936C21.3309 5.48136 20.6309 4.66736 19.9829 4.01936C19.3359 3.37336 18.5219 2.67236 17.5629 1.93936C15.8119 0.603358 13.4009 0.626358 11.6999 1.99836C10.4309 3.02136 8.5169 4.64436 6.6039 6.55836C4.6899 8.47136 3.0679 10.3854 2.0449 11.6544C0.671898 13.3554 0.647898 15.7664 1.9859 17.5184C2.7209 18.4794 3.4209 19.2934 4.0659 19.9384C4.7159 20.5874 5.5299 21.2884 6.4849 22.0164C7.3469 22.6764 8.3689 23.0044 9.3879 23.0044C9.5099 22.9984 12.8739 23.0044 12.9999 23.0024C17.4479 23.0024 21.9209 22.5174 22.1089 22.4964C22.6579 22.4354 23.0539 21.9414 22.9939 21.3924C22.9329 20.8444 22.4349 20.4484 21.8909 20.5074ZM12.9549 3.55436C13.4519 3.15436 14.0539 2.95236 14.6589 2.95236C15.2509 2.95236 15.8459 3.14436 16.3479 3.52836C17.2369 4.20736 17.9839 4.84836 18.5689 5.43236C19.1549 6.01836 19.7959 6.76436 20.4729 7.65236C21.2489 8.66836 21.2389 10.0634 20.4469 11.0454C19.5779 12.1224 18.2649 13.6794 16.7079 15.2944L8.7069 7.29436C10.3209 5.73836 11.8769 4.42436 12.9549 3.55436ZM5.4789 18.5234C4.8959 17.9404 4.2549 17.1934 3.5739 16.3024C2.7979 15.2854 2.8079 13.8904 3.5999 12.9084C4.4599 11.8414 5.7569 10.3054 7.2929 8.70936L15.2909 16.7074C13.6939 18.2434 12.1569 19.5404 11.0909 20.4004C10.1099 21.1904 8.7149 21.2054 7.6969 20.4254C6.8119 19.7494 6.0649 19.1094 5.4769 18.5224L5.4789 18.5234Z" fill="white"/>
</g>
<defs>
<clipPath id="clip0_691_4084">
<rect width="24" height="24" fill="white"/>
</clipPath>
</defs>
</svg>
