<svg width="24" height="24" viewBox="0 0 24 24" fill="none" xmlns="http://www.w3.org/2000/svg">
<g clip-path="url(#clip0_691_4081)">
<path d="M23.121 3.53857L20.461 0.878571C19.337 -0.246429 17.528 -0.297429 16.342 0.762571L1.99997 13.5516V20.5856L0.292969 22.2926L1.70697 23.7066L3.41397 21.9996H10.448L23.238 7.65757C24.297 6.47157 24.245 4.66257 23.121 3.53857ZM3.99997 15.3516L8.64797 19.9996H3.99997V15.3516ZM21.746 6.32657L10.459 18.9826L5.01697 13.5406L17.674 2.25457C18.069 1.90157 18.672 1.91757 19.047 2.29257L21.707 4.95257C22.082 5.32757 22.099 5.93157 21.746 6.32657Z" fill="white"/>
</g>
<defs>
<clipPath id="clip0_691_4081">
<rect width="24" height="24" fill="white"/>
</clipPath>
</defs>
</svg>
